PathFileType	4	(X/Y/Z)	c:/Users/goper/Files/vsCode/490R/osim_files/C10/C10_Slow_02.trc
DataRate	CameraRate	NumFrames	NumMarkers	Units                	OrigDataRate	OrigDataStartFrame	OrigNumFrames
250.00	250.00	10	36	mm	250.0	1634	2614
                Frame#	Time	LPSIS			LASIS			LTH1			LTH2			LTH3			LTH4			LLFE			LMFE			LSH1			LSH2			LSH3			LSH4			LLMAL			LMMAL			LCAL			LMTP5			LTOE			LMTP1			RPSIS			RASIS			RTH1			RTH2			RTH3			RTH4			RLFE			RMFE			RSH1			RSH2			RSH3			RSH4			RLMAL			RMMAL			RCAL			RMTP1			RTOE			RMTP5		
		X1	Y1	Z1	X2	Y2	Z2	X3	Y3	Z3	X4	Y4	Z4	X5	Y5	Z5	X6	Y6	Z6	X7	Y7	Z7	X8	Y8	Z8	X9	Y9	Z9	X10	Y10	Z10	X11	Y11	Z11	X12	Y12	Z12	X13	Y13	Z13	X14	Y14	Z14	X15	Y15	Z15	X16	Y16	Z16	X17	Y17	Z17	X18	Y18	Z18	X19	Y19	Z19	X20	Y20	Z20	X21	Y21	Z21	X22	Y22	Z22	X23	Y23	Z23	X24	Y24	Z24	X25	Y25	Z25	X26	Y26	Z26	X27	Y27	Z27	X28	Y28	Z28	X29	Y29	Z29	X30	Y30	Z30	X31	Y31	Z31	X32	Y32	Z32	X33	Y33	Z33	X34	Y34	Z34	X35	Y35	Z35	X36	Y36	Z36

1634	6.53200	0.00000	0.00000	0.00000	-2838.60864	985.33997	314.05319	-2758.53589	751.13055	348.75867	-2761.86328	703.74097	342.25589	-2817.51904	755.34637	340.22125	0.00000	0.00000	0.00000	-2732.21484	464.10425	281.99472	0.00000	0.00000	0.00000	-2633.04907	419.99890	281.81293	-2602.05737	396.90085	296.02847	0.00000	0.00000	0.00000	0.00000	0.00000	0.00000	-2420.59058	187.44167	254.91559	0.00000	0.00000	0.00000	-2332.76074	204.52643	211.07837	-2427.56909	63.88716	265.43460	-2473.42407	51.91055	201.12497	-2431.57715	50.89141	157.80470	-2674.91235	1007.99707	98.80610	-2853.76855	1002.56348	-16.61004	-2842.86133	733.32709	-65.84093	-2848.74146	686.09210	-59.69681	0.00000	0.00000	0.00000	0.00000	0.00000	0.00000	-2939.12329	488.74155	15.05034	-2945.09790	494.03867	126.07162	-2882.26392	386.62003	4.84832	-2894.96411	343.32144	5.31694	0.00000	0.00000	0.00000	-2939.30713	355.64487	8.07566	-2945.25488	88.65855	61.31473	0.00000	0.00000	0.00000	-2892.61987	45.37941	103.57348	0.00000	0.00000	0.00000	-3110.75317	57.35265	95.49097	-3067.63477	36.86867	34.52266
1635	6.53600	-2672.51929	1003.99835	178.91853	-2843.31323	986.26050	313.39529	-2764.81641	750.84967	348.13925	-2768.86963	703.38776	341.54932	-2823.70410	755.63062	339.47937	0.00000	0.00000	0.00000	-2741.70581	463.49796	281.79385	-2735.17578	446.90472	170.22331	-2642.78003	419.56165	281.50983	-2611.33130	397.56674	296.05908	0.00000	0.00000	0.00000	0.00000	0.00000	0.00000	-2427.37769	190.88304	255.28290	0.00000	0.00000	0.00000	-2339.84546	210.44270	212.04689	-2431.30786	67.26904	265.83990	-2476.24536	53.22178	201.23259	-2433.86157	53.75320	158.48309	-2681.17700	1008.43939	99.05910	-2858.07349	1003.49518	-17.45412	-2845.90894	733.96344	-66.35067	-2852.07129	686.63251	-60.28940	0.00000	0.00000	0.00000	0.00000	0.00000	0.00000	-2941.00049	488.93158	14.66487	-2946.41040	493.90613	125.65478	-2882.89233	386.88803	5.17137	-2895.47632	343.53317	5.48324	0.00000	0.00000	0.00000	-2939.78882	355.57858	7.66755	-2945.27319	88.63324	61.31016	0.00000	0.00000	0.00000	-2892.62793	45.38025	103.57240	0.00000	0.00000	0.00000	-3110.83838	57.19800	95.43639	-3067.65894	36.78423	34.46670
1636	6.54000	0.00000	0.00000	0.00000	-2847.88208	987.16827	312.75854	-2771.19922	750.55524	347.60446	-2775.61499	703.21222	340.95853	-2829.79565	755.97284	338.81174	0.00000	0.00000	0.00000	-2751.20044	462.93338	281.60663	-2745.07983	446.01077	170.21596	-2652.47510	419.18704	281.24573	-2620.48340	398.07812	296.08755	0.00000	0.00000	0.00000	0.00000	0.00000	0.00000	-2434.38037	194.43092	255.50938	0.00000	0.00000	0.00000	-2347.28979	216.43713	213.03532	-2435.58936	70.97440	266.29883	-2479.60913	54.80554	201.33165	-2436.54346	56.90516	159.18387	-2685.90332	1008.96228	98.94818	-2862.26050	1004.36554	-18.27794	-2848.89648	734.67426	-66.82806	-2855.42114	687.28662	-60.90767	0.00000	0.00000	0.00000	0.00000	0.00000	0.00000	-2942.80151	489.10657	14.30730	-2948.04443	493.87836	125.22594	-2883.94849	386.96555	5.70339	-2895.84424	343.78677	5.52069	0.00000	0.00000	0.00000	-2940.24683	355.59665	7.24901	-2945.32031	88.61145	61.28529	0.00000	0.00000	0.00000	-2892.58081	45.42257	103.56582	0.00000	0.00000	0.00000	-3110.88110	57.03533	95.39793	-3067.68555	36.74588	34.41743
1637	6.54400	0.00000	0.00000	0.00000	-2852.23218	988.05731	312.16458	-2777.51465	750.26312	347.10577	-2782.45239	702.98944	340.45386	-2835.83447	756.34399	338.21097	0.00000	0.00000	0.00000	-2760.90381	462.40732	281.38684	0.00000	0.00000	0.00000	-2662.28345	418.83942	280.94818	-2629.78467	398.80811	296.10434	0.00000	0.00000	0.00000	0.00000	0.00000	0.00000	-2441.56348	197.94556	255.75771	0.00000	0.00000	0.00000	-2354.95898	222.45302	214.07486	-2440.34912	74.90060	266.68488	-2483.50488	56.57518	201.55733	-2439.51831	60.24662	159.92702	-2690.52759	1009.50323	98.71639	-2866.46729	1005.23541	-19.03764	-2851.82642	735.39807	-67.27393	-2858.52148	687.85901	-61.55367	0.00000	0.00000	0.00000	0.00000	0.00000	0.00000	-2944.46729	489.19049	13.93297	-2949.34766	493.68576	124.76145	-2884.56616	387.21097	5.76965	-2896.26538	344.04895	5.46759	0.00000	0.00000	0.00000	-2940.64624	355.61844	6.87510	-2945.24121	88.58036	61.18942	0.00000	0.00000	0.00000	-2892.58521	45.41936	103.50782	0.00000	0.00000	0.00000	-3110.76587	56.85985	95.35918	-3067.65942	36.71064	34.36624
1638	6.54800	0.00000	0.00000	0.00000	-2856.49194	988.95099	311.65244	-2783.63940	750.05103	346.62839	-2789.13184	702.83759	340.05438	-2841.83960	756.77264	337.54535	-2839.08032	709.48071	329.89734	-2770.59497	461.85596	281.20657	-2710.10156	383.98737	283.13748	-2672.15869	418.58759	280.69815	-2639.11646	399.52875	296.17661	0.00000	0.00000	0.00000	0.00000	0.00000	0.00000	-2448.75073	201.58006	256.02036	0.00000	0.00000	0.00000	-2362.72607	228.75430	215.37369	-2445.51904	78.85809	267.13416	-2489.76562	60.68370	200.79326	-2442.94409	63.89069	160.66927	-2694.94482	1010.08130	98.51521	-2870.80322	1006.13098	-19.76657	-2854.74463	736.10663	-67.74390	-2861.50928	688.49329	-62.21336	0.00000	0.00000	0.00000	0.00000	0.00000	0.00000	-2946.01660	489.26074	13.50631	-2950.85913	493.55432	124.29848	-2885.23364	387.48593	5.71597	-2896.63306	344.30209	5.32960	0.00000	0.00000	0.00000	-2941.04541	355.63068	6.51285	-2945.25562	88.59388	61.14005	0.00000	0.00000	0.00000	-2892.62231	45.40665	103.50027	0.00000	0.00000	0.00000	-3110.71826	56.73330	95.37669	-3067.70947	36.70972	34.36852
1639	6.55200	-2690.37573	1004.90619	178.11671	-2860.76318	989.86462	311.08624	-2789.75586	749.92340	346.20731	-2795.82837	702.70709	339.66223	-2847.80811	757.26624	336.93829	-2845.65161	709.94220	329.40881	-2780.21240	461.38092	281.02252	0.00000	0.00000	0.00000	-2681.91577	418.35852	280.43594	-2648.44458	400.34085	296.22433	0.00000	0.00000	0.00000	0.00000	0.00000	0.00000	-2455.92334	205.10394	256.26694	0.00000	0.00000	0.00000	-2370.63672	235.04807	216.54448	-2451.15332	82.88937	267.60532	-2489.94165	59.80883	199.28618	-2446.78076	67.68538	161.43111	-2699.41577	1010.70880	98.25214	-2875.00439	1006.94189	-20.38471	-2857.67139	736.81171	-68.19116	-2864.61719	689.14404	-62.86461	0.00000	0.00000	0.00000	0.00000	0.00000	0.00000	-2947.51831	489.31790	13.08221	-2952.15991	493.31360	123.79569	-2885.94751	387.80942	5.47684	-2897.05273	344.55814	5.04758	0.00000	0.00000	0.00000	-2941.49146	355.61859	6.09904	-2945.20776	88.56692	61.05961	0.00000	0.00000	0.00000	-2892.54883	45.43037	103.44476	0.00000	0.00000	0.00000	-3110.67603	56.63761	95.33942	-3067.66870	36.70596	34.32003
1640	6.55600	0.00000	0.00000	0.00000	-2864.79004	990.71436	310.58765	-2795.97339	749.65601	345.60529	-2802.45361	702.58984	339.24738	-2853.80200	757.82843	336.29587	-2852.30029	710.50476	328.94785	-2789.87476	461.04599	280.88843	-2708.16455	389.33810	290.63315	-2691.79077	418.27985	280.19373	-2657.96631	401.19537	296.27069	0.00000	0.00000	0.00000	0.00000	0.00000	0.00000	-2463.14233	208.60744	256.47064	0.00000	0.00000	0.00000	-2379.56152	240.94359	217.79770	-2457.21460	86.82514	268.10117	-2495.11304	61.61290	199.51003	-2451.21069	71.49360	162.21637	-2703.93408	1011.29083	97.93666	-2879.37183	1007.80573	-20.97192	-2860.62134	737.49738	-68.61420	-2867.74634	689.78064	-63.46305	0.00000	0.00000	0.00000	0.00000	0.00000	0.00000	-2948.99170	489.38361	12.56776	-2953.75830	493.16895	123.27110	-2886.63281	388.07547	5.11411	-2896.68042	345.15372	5.07567	0.00000	0.00000	0.00000	-2941.98267	355.68149	5.77310	-2945.16260	88.57497	60.96513	0.00000	0.00000	0.00000	-2892.46143	45.45662	103.37440	0.00000	0.00000	0.00000	-3110.75366	56.58676	95.32957	-3067.69604	36.69039	34.30033
1641	6.56000	0.00000	0.00000	0.00000	-2868.78320	991.48639	310.19406	-2802.09570	749.58417	345.10513	-2809.13379	702.51752	338.87280	-2859.62671	758.37744	335.63297	-2858.76831	711.01172	328.52188	-2799.42456	460.74103	280.77094	0.00000	0.00000	0.00000	-2701.71484	418.30807	279.98553	-2667.35449	402.10056	296.25366	0.00000	0.00000	0.00000	0.00000	0.00000	0.00000	-2470.74609	211.76765	257.19406	0.00000	0.00000	0.00000	-2388.90210	246.23703	218.93253	-2463.82422	90.41046	268.69217	-2501.14966	63.17217	199.85854	-2456.37451	74.96420	162.92140	-2708.40088	1011.91248	97.57813	-2883.79565	1008.62683	-21.45641	-2863.65210	738.18768	-69.04601	-2871.02026	690.44476	-64.03292	0.00000	0.00000	0.00000	0.00000	0.00000	0.00000	-2950.27930	489.42728	12.02754	-2955.10986	492.93607	122.69812	-2887.55347	388.25116	4.64648	-2897.42798	345.33344	4.58777	0.00000	0.00000	0.00000	-2942.52539	355.73541	5.46209	-2945.08423	88.55096	60.85904	0.00000	0.00000	0.00000	-2887.44702	46.31760	102.04549	0.00000	0.00000	0.00000	-3110.90991	56.57867	95.32065	-3067.75171	36.67178	34.25603
1642	6.56400	0.00000	0.00000	0.00000	-2872.64819	992.29620	309.73209	-2808.08032	749.60645	344.69235	-2815.59521	702.57941	338.48065	-2865.40161	758.95612	334.96478	-2865.22241	711.62225	328.05511	-2809.02490	460.60916	280.68939	-2726.38599	390.09183	290.05893	-2711.65503	418.50827	279.81378	-2676.80151	403.05249	296.20071	0.00000	0.00000	0.00000	0.00000	0.00000	0.00000	-2478.15015	215.10385	257.42340	0.00000	0.00000	0.00000	-2398.07397	250.64984	219.60834	-2470.89771	93.75807	269.36212	-2508.05859	64.46333	200.55521	-2462.48218	77.85835	163.73311	-2712.68994	1012.54486	97.19023	-2888.14014	1009.40906	-21.85554	-2867.26855	739.00488	-69.38451	-2874.28931	691.12274	-64.53849	0.00000	0.00000	0.00000	0.00000	0.00000	0.00000	-2951.54028	489.41068	11.45884	-2956.74194	492.75317	122.13582	-2888.54395	388.44876	3.98268	-2898.07422	345.55658	3.95520	0.00000	0.00000	0.00000	-2943.21680	355.78662	5.15518	-2945.12573	88.56416	60.76049	0.00000	0.00000	0.00000	-2887.72046	47.33187	102.02712	0.00000	0.00000	0.00000	-3110.88818	56.48049	95.27173	-3067.75977	36.65355	34.19152
1643	6.56800	-2707.59033	1006.36597	176.32930	-2876.68213	993.08972	309.35373	-2814.01587	749.68005	344.22903	-2822.17065	702.67194	338.13266	-2871.21753	759.62903	334.28973	-2871.67236	712.28424	327.60217	-2818.46899	460.59183	280.60062	0.00000	0.00000	0.00000	-2721.52612	418.81479	279.65643	-2686.42407	404.17963	296.14685	0.00000	0.00000	0.00000	0.00000	0.00000	0.00000	-2485.90063	218.26595	257.65091	0.00000	0.00000	0.00000	-2406.05469	254.28983	219.52065	-2478.77490	96.94686	270.24326	-2515.60205	66.16935	201.62656	-2470.22192	82.33914	165.18570	-2717.07300	1013.26160	96.77406	-2892.59351	1010.18658	-22.21173	-2871.87988	740.07684	-69.58358	-2877.62939	691.75879	-65.02013	0.00000	0.00000	0.00000	0.00000	0.00000	0.00000	-2952.73804	489.40552	10.88146	-2958.10156	492.49637	121.55340	-2887.39648	389.13657	2.57976	-2899.03125	345.68970	3.23479	0.00000	0.00000	0.00000	-2943.93848	355.83328	4.98962	-2945.08130	88.53248	60.64380	0.00000	0.00000	0.00000	-2889.37085	47.98648	102.57713	0.00000	0.00000	0.00000	-3110.96558	56.49226	95.24348	-3067.77441	36.63320	34.14727
